<?xml version="1.0" encoding="UTF-8" standalone="no"?>
<svg
   version="1.0"
   width="16pt"
   height="16pt"
   viewBox="0 0 16 16"
   preserveAspectRatio="xMidYMid"
   id="svg254"
   sodipodi:docname="output.svg"
   inkscape:version="1.3.2 (091e20e, 2023-11-25, custom)"
   xmlns:inkscape="http://www.inkscape.org/namespaces/inkscape"
   xmlns:sodipodi="http://sodipodi.sourceforge.net/DTD/sodipodi-0.dtd"
   xmlns="http://www.w3.org/2000/svg"
   xmlns:svg="http://www.w3.org/2000/svg">
  <defs
     id="defs258" />
  <sodipodi:namedview
     id="namedview256"
     pagecolor="#ffffff"
     bordercolor="#000000"
     borderopacity="0.25"
     inkscape:showpageshadow="2"
     inkscape:pageopacity="0.0"
     inkscape:pagecheckerboard="0"
     inkscape:deskcolor="#d1d1d1"
     inkscape:document-units="pt"
     showgrid="false"
     inkscape:zoom="8.5101406"
     inkscape:cx="26.615306"
     inkscape:cy="26.086526"
     inkscape:window-width="1783"
     inkscape:window-height="992"
     inkscape:window-x="255"
     inkscape:window-y="304"
     inkscape:window-maximized="0"
     inkscape:current-layer="svg254" />
  <text
     xml:space="preserve"
     style="font-size:7.63893px;fill:#000000;stroke-width:0.636578;fill-opacity:1"
     x="6.955533"
     y="7.2036476"
     id="text1"
     transform="scale(1.1447393,0.87356132)"><tspan
       sodipodi:role="line"
       id="tspan1"
       style="font-style:normal;font-variant:normal;font-weight:normal;font-stretch:normal;line-height:0;font-family:'Gill Sans Ultra Bold Condensed';-inkscape-font-specification:'Gill Sans Ultra Bold Condensed, ';text-align:center;text-anchor:middle;stroke-width:0.636578;fill:#000000;fill-opacity:1"
       x="6.955533"
       y="7.2036476">OUT</tspan><tspan
       sodipodi:role="line"
       style="font-style:normal;font-variant:normal;font-weight:normal;font-stretch:normal;line-height:0;font-family:'Gill Sans Ultra Bold Condensed';-inkscape-font-specification:'Gill Sans Ultra Bold Condensed, ';text-align:center;text-anchor:middle;stroke-width:0.636578;fill:#000000;fill-opacity:1"
       x="6.955533"
       y="16.752308"
       id="tspan2">PUT</tspan></text>
  <path
     style="fill:#7d7d7d;stroke-width:0.117507"
     d="M 10.42542,8.2877921 C 9.7019497,8.0618781 9.1501822,7.5946853 8.7819612,6.8962422 8.4690677,6.3027444 8.4595499,6.2267794 8.4221686,4.0246104 L 8.3837716,1.7626031 h 1.2398962 1.2398962 l 0.03229,1.9094866 0.03229,1.9094867 h 0.293767 0.293767 l 0.03229,-1.9094867 0.03229,-1.9094866 h 1.307301 1.307302 L 14.126128,3.84835 C 14.075871,5.3736096 14.003046,6.0898494 13.855124,6.5137 13.574998,7.3163623 12.826147,8.0412107 12.034,8.276453 11.300119,8.4943923 11.091743,8.4958612 10.42542,8.2877921 Z"
     id="path1"
     transform="scale(0.75)" />
  <path
     style="fill:#00ff00;stroke-width:0.117507"
     d="M 10.065453,8.041395 C 9.4038079,7.7065122 8.8501227,7.0725106 8.6531474,6.4242241 8.5908782,6.2192829 8.5121532,5.0865787 8.4782031,3.9071035 L 8.4164756,1.7626031 h 1.1551297 c 0.9449277,0 1.1681087,0.033823 1.2264547,0.1858709 0.03923,0.102229 0.07133,0.9666706 0.07133,1.9209812 v 1.7351103 l 0.35252,0.010023 0.352521,0.010023 V 3.8794781 c 0,-0.9598233 0.0321,-1.8287751 0.07132,-1.9310041 0.05872,-0.1530146 0.287502,-0.1858709 1.294257,-0.1858709 h 1.222931 L 14.091569,3.437076 C 14.052319,4.3580361 13.973535,5.4258166 13.9165,5.8099214 13.705936,7.2279486 12.686474,8.2267114 11.359687,8.314819 10.812662,8.351145 10.580555,8.30211 10.065449,8.041395 Z"
     id="path2"
     transform="scale(0.75)" />
</svg>
