<?xml version="1.0" standalone="no"?>
<!DOCTYPE svg PUBLIC "-//W3C//DTD SVG 20010904//EN"
 "http://www.w3.org/TR/2001/REC-SVG-20010904/DTD/svg10.dtd">
<svg version="1.0" xmlns="http://www.w3.org/2000/svg"
 width="32.000000pt" height="32.000000pt" viewBox="0 0 32.000000 32.000000"
 preserveAspectRatio="xMidYMid meet">

<g transform="translate(0.000000,32.000000) scale(0.100000,-0.100000)"
fill="#000000" stroke="none">
<path d="M30 239 c0 -44 3 -60 13 -57 6 3 13 17 15 31 2 19 9 27 23 27 10 0
19 5 19 10 0 6 -9 10 -20 10 -11 0 -20 5 -20 10 0 6 11 10 25 10 14 0 25 5 25
10 0 6 -18 10 -40 10 l-40 0 0 -61z"/>
<path d="M135 244 c-17 -58 -13 -82 9 -51 17 22 32 22 45 0 18 -33 24 -4 9 49
-21 74 -42 75 -63 2z m32 -6 c-3 -7 -5 -2 -5 12 0 14 2 19 5 13 2 -7 2 -19 0
-25z"/>
<path d="M220 240 c0 -33 4 -60 10 -60 6 0 10 17 10 37 0 33 1 35 14 18 13
-18 13 -18 24 1 10 16 11 14 12 -18 0 -21 5 -38 10 -38 6 0 10 27 10 60 0 47
-3 60 -15 60 -9 0 -19 -10 -24 -22 l-8 -22 -5 22 c-4 12 -13 22 -22 22 -13 0
-16 -12 -16 -60z"/>
<path d="M40 150 c0 -5 5 -10 10 -10 6 0 10 -18 10 -40 0 -22 -4 -40 -10 -40
-5 0 -10 -4 -10 -10 0 -5 16 -10 35 -10 19 0 35 5 35 10 0 6 -7 10 -15 10 -11
0 -15 11 -15 40 0 29 4 40 15 40 8 0 15 5 15 10 0 6 -16 10 -35 10 -19 0 -35
-4 -35 -10z"/>
<path d="M140 100 l0 -60 35 0 c19 0 35 5 35 10 0 6 -11 10 -25 10 -23 0 -25
3 -25 50 0 28 -4 50 -10 50 -6 0 -10 -27 -10 -60z"/>
<path d="M240 120 c11 -21 20 -48 20 -60 0 -11 5 -20 10 -20 6 0 10 10 10 23
1 12 7 33 15 47 8 14 14 31 15 38 0 19 -18 14 -25 -8 -3 -11 -10 -20 -15 -20
-5 0 -12 9 -15 20 -3 11 -13 20 -21 20 -12 0 -11 -8 6 -40z"/>
</g>
</svg>
