<?xml version="1.0" encoding="UTF-8" standalone="no"?>
<svg
   id="body_1"
   width="16"
   height="16"
   version="1.1"
   sodipodi:docname="family.svg"
   viewBox="0 0 16 16"
   inkscape:version="1.2.2 (732a01da63, 2022-12-09)"
   xmlns:inkscape="http://www.inkscape.org/namespaces/inkscape"
   xmlns:sodipodi="http://sodipodi.sourceforge.net/DTD/sodipodi-0.dtd"
   xmlns="http://www.w3.org/2000/svg"
   xmlns:svg="http://www.w3.org/2000/svg">
  <defs
     id="defs49" />
  <sodipodi:namedview
     id="namedview47"
     pagecolor="#ffffff"
     bordercolor="#000000"
     borderopacity="0.25"
     inkscape:showpageshadow="2"
     inkscape:pageopacity="0.0"
     inkscape:pagecheckerboard="false"
     inkscape:deskcolor="#d1d1d1"
     showgrid="false"
     inkscape:zoom="23.883721"
     inkscape:cx="17.459591"
     inkscape:cy="18.820351"
     inkscape:window-width="1350"
     inkscape:window-height="1230"
     inkscape:window-x="2063"
     inkscape:window-y="181"
     inkscape:window-maximized="0"
     inkscape:current-layer="body_1" />
  <g
     transform="matrix(0.55271509,0,0,0.55271509,-1.3231891,-0.39364831)"
     id="g44">
    <g
       transform="matrix(0.1,0,0,-0.1,0,32)"
       id="g42">
      <path
         d="m 30,239 c 0,-44 3,-60 13,-57 6,3 13,17 15,31 2,19 9,27 23,27 10,0 19,5 19,10 0,6 -9,10 -20,10 -11,0 -20,5 -20,10 0,6 11,10 25,10 14,0 25,5 25,10 0,6 -18,10 -40,10 v 0 H 30 Z"
         stroke="none"
         fill="#000000"
         fill-rule="nonzero"
         id="path30" />
      <path
         d="m 135,244 c -17,-58 -13,-82 9,-51 17,22 32,22 45,0 18,-33 24,-4 9,49 -21,74 -42,75 -63,2 z m 32,-6 c -3,-7 -5,-2 -5,12 0,14 2,19 5,13 2,-7 2,-19 0,-25 z"
         stroke="none"
         fill="#000000"
         fill-rule="nonzero"
         id="path32" />
      <path
         d="m 220,240 c 0,-33 4,-60 10,-60 6,0 10,17 10,37 0,33 1,35 14,18 13,-18 13,-18 24,1 10,16 11,14 12,-18 0,-21 5,-38 10,-38 6,0 10,27 10,60 0,47 -3,60 -15,60 -9,0 -19,-10 -24,-22 v 0 l -8,-22 -5,22 c -4,12 -13,22 -22,22 -13,0 -16,-12 -16,-60 z"
         stroke="none"
         fill="#000000"
         fill-rule="nonzero"
         id="path34" />
      <path
         d="m 40,150 c 0,-5 5,-10 10,-10 6,0 10,-18 10,-40 C 60,78 56,60 50,60 45,60 40,56 40,50 40,45 56,40 75,40 c 19,0 35,5 35,10 0,6 -7,10 -15,10 -11,0 -15,11 -15,40 0,29 4,40 15,40 8,0 15,5 15,10 0,6 -16,10 -35,10 -19,0 -35,-4 -35,-10 z"
         stroke="none"
         fill="#000000"
         fill-rule="nonzero"
         id="path36" />
      <path
         d="M 140,100 V 40 h 35 c 19,0 35,5 35,10 0,6 -11,10 -25,10 -23,0 -25,3 -25,50 0,28 -4,50 -10,50 -6,0 -10,-27 -10,-60 z"
         stroke="none"
         fill="#000000"
         fill-rule="nonzero"
         id="path38" />
      <path
         d="m 240,120 c 11,-21 20,-48 20,-60 0,-11 5,-20 10,-20 6,0 10,10 10,23 1,12 7,33 15,47 8,14 14,31 15,38 0,19 -18,14 -25,-8 -3,-11 -10,-20 -15,-20 -5,0 -12,9 -15,20 -3,11 -13,20 -21,20 -12,0 -11,-8 6,-40 z"
         stroke="none"
         fill="#000000"
         fill-rule="nonzero"
         id="path40" />
    </g>
  </g>
</svg>
