<svg
   id="body_1"
   width="16"
   height="16"
   version="1.1"
   sodipodi:docname="family.svg"
   viewBox="0 0 16 16"
   inkscape:version="1.3.2 (091e20e, 2023-11-25, custom)"
   xmlns:inkscape="http://www.inkscape.org/namespaces/inkscape"
   xmlns:sodipodi="http://sodipodi.sourceforge.net/DTD/sodipodi-0.dtd"
   xmlns="http://www.w3.org/2000/svg"
   xmlns:svg="http://www.w3.org/2000/svg">
  <defs
     id="defs49" />
  <sodipodi:namedview
     id="namedview47"
     pagecolor="#ffffff"
     bordercolor="#000000"
     borderopacity="0.25"
     inkscape:showpageshadow="2"
     inkscape:pageopacity="0.0"
     inkscape:pagecheckerboard="false"
     inkscape:deskcolor="#d1d1d1"
     showgrid="false"
     inkscape:zoom="23.883721"
     inkscape:cx="17.459591"
     inkscape:cy="12.121227"
     inkscape:window-width="1920"
     inkscape:window-height="1009"
     inkscape:window-x="1912"
     inkscape:window-y="-8"
     inkscape:window-maximized="1"
     inkscape:current-layer="body_1" />
  <g
     transform="matrix(0.55271509,0,0,0.55271509,-1.3231891,-0.39364831)"
     id="g44">
    <g
       transform="matrix(0.1,0,0,-0.1,0,32)"
       id="g42">
      <path
         d="m 30,239 c 0,-44 3,-60 13,-57 6,3 13,17 15,31 2,19 9,27 23,27 10,0 19,5 19,10 0,6 -9,10 -20,10 -11,0 -20,5 -20,10 0,6 11,10 25,10 14,0 25,5 25,10 0,6 -18,10 -40,10 v 0 H 30 Z"
         stroke="none"
         fill="#000000"
         fill-rule="nonzero"
         id="path30" />
      <path
         d="m 135,244 c -17,-58 -13,-82 9,-51 17,22 32,22 45,0 18,-33 24,-4 9,49 -21,74 -42,75 -63,2 z m 32,-6 c -3,-7 -5,-2 -5,12 0,14 2,19 5,13 2,-7 2,-19 0,-25 z"
         stroke="none"
         fill="#000000"
         fill-rule="nonzero"
         id="path32" />
      <path
         d="m 220,240 c 0,-33 4,-60 10,-60 6,0 10,17 10,37 0,33 1,35 14,18 13,-18 13,-18 24,1 10,16 11,14 12,-18 0,-21 5,-38 10,-38 6,0 10,27 10,60 0,47 -3,60 -15,60 -9,0 -19,-10 -24,-22 v 0 l -8,-22 -5,22 c -4,12 -13,22 -22,22 -13,0 -16,-12 -16,-60 z"
         stroke="none"
         fill="#000000"
         fill-rule="nonzero"
         id="path34" />
      <path
         d="m 40,150 c 0,-5 5,-10 10,-10 6,0 10,-18 10,-40 C 60,78 56,60 50,60 45,60 40,56 40,50 40,45 56,40 75,40 c 19,0 35,5 35,10 0,6 -7,10 -15,10 -11,0 -15,11 -15,40 0,29 4,40 15,40 8,0 15,5 15,10 0,6 -16,10 -35,10 -19,0 -35,-4 -35,-10 z"
         stroke="none"
         fill="#000000"
         fill-rule="nonzero"
         id="path36" />
      <path
         d="M 140,100 V 40 h 35 c 19,0 35,5 35,10 0,6 -11,10 -25,10 -23,0 -25,3 -25,50 0,28 -4,50 -10,50 -6,0 -10,-27 -10,-60 z"
         stroke="none"
         fill="#000000"
         fill-rule="nonzero"
         id="path38" />
      <path
         d="m 240,120 c 11,-21 20,-48 20,-60 0,-11 5,-20 10,-20 6,0 10,10 10,23 1,12 7,33 15,47 8,14 14,31 15,38 0,19 -18,14 -25,-8 -3,-11 -10,-20 -15,-20 -5,0 -12,9 -15,20 -3,11 -13,20 -21,20 -12,0 -11,-8 6,-40 z"
         stroke="none"
         fill="#000000"
         fill-rule="nonzero"
         id="path40" />
    </g>
  </g>
  <path
     style="fill:#666666;stroke-width:0.0418695"
     d="M 9.6091019,7.2587864 C 9.5269259,7.1866348 9.3481826,6.9461463 9.2118943,6.7243672 8.8917918,6.2034706 8.7072066,5.9911904 8.4422115,5.8392028 8.1657459,5.6806362 7.8039828,5.6677596 7.5098541,5.8060166 7.2583858,5.9242205 6.8828289,6.2746525 6.5477912,6.7037167 6.2377142,7.1008152 6.0315801,7.2935331 5.8748359,7.3328733 5.4291239,7.4447403 5.4995505,6.2064776 6.0529987,4.2003602 6.6620107,1.9928374 7.2679477,0.85832522 7.837962,0.85832522 c 0.219703,0 0.3626502,0.0812038 0.5920009,0.33629688 0.6524368,0.7256668 1.5353721,3.5345505 1.6064431,5.1105818 0.02776,0.6156038 -0.0043,0.8919615 -0.1163471,1.0040458 -0.1076616,0.1076616 -0.1361232,0.103043 -0.310957,-0.050463 z M 7.8991732,4.1974197 C 7.9520518,4.0970961 7.9748854,3.9293347 7.9860794,3.5589094 8.0044006,2.952638 7.9430206,2.6449773 7.7996785,2.6245944 7.7285006,2.6144731 7.6993106,2.6387981 7.67407,2.7292682 7.631713,2.8810901 7.631169,4.0673876 7.6733877,4.2183544 c 0.04313,0.1542252 0.1381037,0.1454193 0.2257855,-0.020935 z"
     id="path1" />
  <path
     style="fill:#666666;stroke-width:0.0418695"
     d="M 9.592284,7.1999028 C 9.5207181,7.1183937 9.3308905,6.8560443 9.170445,6.616904 8.6892361,5.8996741 8.4204596,5.7004878 7.9342746,5.7007972 7.4942736,5.7010773 7.1785236,5.9198179 6.5643684,6.6498206 5.9845653,7.3389917 5.7916693,7.4493953 5.6711839,7.1610332 5.5406011,6.8485045 5.6337489,5.9790993 5.9247806,4.7940604 6.4282923,2.7438339 7.0484038,1.2985409 7.5602919,0.98217666 8.0827593,0.65927404 8.6004212,1.2015209 9.1540172,2.6515919 c 0.521435,1.3658294 0.8527988,2.890434 0.8527988,3.9237269 0,0.7602471 -0.1271754,0.9518651 -0.414532,0.624584 z M 7.9061614,4.213703 C 8.0083192,4.0577906 8.0326238,2.9923133 7.939127,2.7685439 7.8559271,2.5694185 7.7078708,2.566734 7.6547914,2.7633885 c -0.040312,0.149353 -0.026623,1.445456 0.015957,1.5107919 0.05108,0.07838 0.1633241,0.049545 0.235413,-0.060477 z"
     id="path2" />
</svg>
