<?xml version="1.0" encoding="UTF-8" standalone="no"?>
<svg
   version="1.0"
   width="16pt"
   height="16pt"
   viewBox="0 0 16 16"
   preserveAspectRatio="xMidYMid"
   id="svg254"
   sodipodi:docname="mapper.svg"
   inkscape:version="1.2.2 (732a01da63, 2022-12-09)"
   xmlns:inkscape="http://www.inkscape.org/namespaces/inkscape"
   xmlns:sodipodi="http://sodipodi.sourceforge.net/DTD/sodipodi-0.dtd"
   xmlns="http://www.w3.org/2000/svg"
   xmlns:svg="http://www.w3.org/2000/svg">
  <defs
     id="defs258" />
  <sodipodi:namedview
     id="namedview256"
     pagecolor="#ffffff"
     bordercolor="#000000"
     borderopacity="0.25"
     inkscape:showpageshadow="2"
     inkscape:pageopacity="0.0"
     inkscape:pagecheckerboard="0"
     inkscape:deskcolor="#d1d1d1"
     inkscape:document-units="pt"
     showgrid="false"
     inkscape:zoom="8.5101406"
     inkscape:cx="26.615306"
     inkscape:cy="26.145279"
     inkscape:window-width="1783"
     inkscape:window-height="992"
     inkscape:window-x="2032"
     inkscape:window-y="16"
     inkscape:window-maximized="0"
     inkscape:current-layer="svg254" />
  <g
     transform="matrix(0.052108,0,0,-0.052108,-1.0308843,17.015091)"
     fill="#000000"
     stroke="none"
     id="g252">
    <path
       d="m 30,245 c 0,-42 3,-55 15,-55 9,0 15,9 15,25 0,17 4,23 14,19 8,-3 16,2 19,13 3,10 5,1 6,-19 2,-60 21,-44 21,17 0,60 -18,75 -38,33 L 71,255 v 23 c -1,15 -7,22 -21,22 -18,0 -20,-7 -20,-55 z"
       id="path240" />
    <path
       d="m 150,260 c -6,-23 -14,-48 -17,-56 -7,-20 17,-18 33,4 12,16 14,16 28,-3 23,-31 29,-12 13,41 -18,64 -42,70 -57,14 z m 27,-22 c -3,-7 -5,-2 -5,12 0,14 2,19 5,13 2,-7 2,-19 0,-25 z"
       id="path242" />
    <path
       d="m 240,245 c 0,-30 5,-55 10,-55 6,0 10,9 10,19 0,12 8,21 21,23 55,8 44,68 -12,68 -28,0 -29,-1 -29,-55 z m 50,20 c 0,-8 -7,-15 -15,-15 -8,0 -15,7 -15,15 0,8 7,15 15,15 8,0 15,-7 15,-15 z"
       id="path244" />
    <path
       d="m 34,146 c -9,-24 1,-99 14,-104 7,-2 12,6 12,21 0,19 6,26 23,29 26,3 37,46 15,59 -20,13 -58,10 -64,-5 z m 53,-23 c 2,-6 -3,-13 -12,-16 -10,-5 -15,0 -15,14 0,21 21,22 27,2 z"
       id="path246" />
    <path
       d="m 134,146 c -3,-7 -4,-33 -2,-57 3,-43 4,-44 41,-47 21,-2 37,1 37,7 0,6 -11,11 -25,11 -16,0 -25,6 -25,15 0,8 9,15 20,15 11,0 20,5 20,10 0,6 -9,10 -20,10 -11,0 -20,7 -20,15 0,9 9,15 25,15 14,0 25,5 25,10 0,16 -70,12 -76,-4 z"
       id="path248" />
    <path
       d="m 230,100 c 0,-33 4,-60 10,-60 6,0 10,9 10,19 0,31 19,35 32,7 6,-14 17,-26 25,-26 11,0 11,4 -1,27 -10,21 -11,32 -3,45 15,23 -8,48 -44,48 -29,0 -29,-1 -29,-60 z m 50,25 c 0,-8 -7,-15 -15,-15 -8,0 -15,7 -15,15 0,8 7,15 15,15 8,0 15,-7 15,-15 z"
       id="path250" />
  </g>
</svg>
